.
..............................Site Info...........................

 -   http://www.scenetime.com  *_*   

SceneTime is going to Close sign up on march/1, hurry up! get in before the doors are closed.

     We care to share . Join us on  http://www.scenetime.com 

    Be the first to get new release at  http://www.scenetime.com

        Seed back for speed


...................................NFO:.................................................








































          
          
              
              
                    
                    
                    
                    

Big.Meat.Eater.1982.DVDRiP.AC3-2.0.XviD-SiC

Poster:
[img]http://img851.imageshack.us/img851/566/bmegraphic.jpg[/img]

IMDB Link:
http://www.imdb.com/title/tt0126814/

Description:
After killing the crooked mayor a homicidal janitor named Abdullah goes to work for a butcher who has invented a new language for the town's planned futuristic theme park. In the butcher shop is a septic tank where scraps of meat are dumped which has produced "balonium" a radioactive fuel source sought after by space aliens. The aliens revive the mayor, who's body is hanging in the meat locker of the butcher shop, in an attempt to gain access to the balonium.


General
Complete name                    : Big.Meat.Eater.1982.DVDRiP.AC3-2.0.XviD-SiC.avi
Format                           : AVI
Format/Info                      : Audio Video Interleave
File size                        : 1.37 GiB
Duration                         : 1h 21mn
Overall bit rate                 : 2 393 Kbps

Video
ID                               : 0
Format                           : MPEG-4 Visual
Format profile                   : Simple@L3
Format settings, BVOP            : 2
Format settings, QPel            : No
Format settings, GMC             : No warppoints
Format settings, Matrix          : Default (H.263)
Muxing mode                      : Packed bitstream
Codec ID                         : XVID
Codec ID/Hint                    : XviD
Duration                         : 1h 21mn
Bit rate                         : 2 130 Kbps
Width                            : 656 pixels
Height                           : 480 pixels
Display aspect ratio             : 4:3
Frame rate                       : 23.976 fps
Color space                      : YUV
Chroma subsampling               : 4:2:0
Bit depth                        : 8 bits
Scan type                        : Progressive
Compression mode                 : Lossy
Bits/(Pixel*Frame)               : 0.282
Stream size                      : 1.22 GiB (89%)
Writing library                  : XviD 1.0.3 (UTC 2004-12-20)

Audio
ID                               : 1
Format                           : AC-3
Format/Info                      : Audio Coding 3
Mode extension                   : CM (complete main)
Codec ID                         : 2000
Duration                         : 1h 21mn
Bit rate mode                    : Constant
Bit rate                         : 256 Kbps
Channel(s)                       : 6 channels
Channel positions                : Front: L C R, Side: L R, LFE
Sampling rate                    : 48.0 KHz
Bit depth                        : 16 bits
Compression mode                 : Lossy
Stream size                      : 150 MiB (11%)
Alignment                        : Aligned on interleaves
Interleave, duration             : 64 ms (1.53 video frames)
Interleave, preload duration     : 192 ms
Title                            : VTS_01_1 T81 3_2ch 224Kbps DELAY 0ms_new






Screenshots:
[img]http://img141.imageshack.us/img141/8366/vlcsnap2012021212h24m04.png[/img]
[img]http://img850.imageshack.us/img850/8083/vlcsnap2012021212h24m06.png[/img]
[img]http://img52.imageshack.us/img52/9330/vlcsnap2012021212h24m08.png[/img]
[img]http://img171.imageshack.us/img171/4009/vlcsnap2012021212h24m10.png[/img]



Note: 

Source: 

Enjoy!

Respects to T00NG0D, ELEKTRI4KA, PA, YeFsTe, MrRep and everyone in the struggle...RiP MU & BTJ